<?xml version="1.0" encoding="UTF-8" standalone="no"?><svg xmlns="http://www.w3.org/2000/svg" xmlns:xlink="http://www.w3.org/1999/xlink" contentScriptType="application/ecmascript" contentStyleType="text/css" height="217px" preserveAspectRatio="none" style="width:970px;height:217px;" version="1.1" viewBox="0 0 970 217" width="970px" zoomAndPan="magnify"><defs/><g><ellipse cx="713.3492" cy="53.742" fill="#F8F8F8" rx="17.8492" ry="13.242" style="stroke: #383838; stroke-width: 0.5;"/><text fill="#000000" font-family="Tahoma, sans-serif" font-size="12" lengthAdjust="spacingAndGlyphs" textLength="21" x="702.8492" y="57.4842">App</text><ellipse cx="396.6673" cy="53.3335" fill="#F8F8F8" rx="104.6673" ry="23.3335" style="stroke: #383838; stroke-width: 0.5;"/><text fill="#000000" font-family="Tahoma, sans-serif" font-size="12" lengthAdjust="spacingAndGlyphs" textLength="190" x="301.6673" y="57.0756">components/MoistureDashboard</text><ellipse cx="506.6335" cy="128.742" fill="#F8F8F8" rx="46.1335" ry="13.242" style="stroke: #383838; stroke-width: 0.5;"/><text fill="#000000" font-family="Tahoma, sans-serif" font-size="12" lengthAdjust="spacingAndGlyphs" textLength="61" x="476.1335" y="132.4842">GraphIcon</text><ellipse cx="713.2843" cy="128.742" fill="#F8F8F8" rx="31.2843" ry="13.242" style="stroke: #383838; stroke-width: 0.5;"/><text fill="#000000" font-family="Tahoma, sans-serif" font-size="12" lengthAdjust="spacingAndGlyphs" textLength="40" x="693.2843" y="132.4842">Header</text><!--entity _HistoryChart--><rect fill="#F8F8F8" height="34.4844" rx="3" ry="3" style="stroke: #000000; stroke-width: 0.5;" width="90" x="356.5" y="111.5"/><text fill="#000000" font-family="Tahoma, sans-serif" font-size="12" lengthAdjust="spacingAndGlyphs" textLength="70" x="366.5" y="133.5059">HistoryChart</text><ellipse cx="197.3701" cy="53.742" fill="#F8F8F8" rx="29.8701" ry="13.242" style="stroke: #383838; stroke-width: 0.5;"/><text fill="#000000" font-family="Tahoma, sans-serif" font-size="12" font-weight="bold" lengthAdjust="spacingAndGlyphs" textLength="38" x="178.3701" y="57.4842">Home</text><ellipse cx="713.5061" cy="193.242" fill="#F8F8F8" rx="23.5061" ry="13.242" style="stroke: #383838; stroke-width: 0.5;"/><text fill="#000000" font-family="Tahoma, sans-serif" font-size="12" lengthAdjust="spacingAndGlyphs" textLength="29" x="699.0061" y="196.9842">Logo</text><ellipse cx="112.5386" cy="128.7077" fill="#F8F8F8" rx="106.5386" ry="23.7077" style="stroke: #383838; stroke-width: 0.5;"/><text fill="#000000" font-family="Tahoma, sans-serif" font-size="12" font-weight="bold" lengthAdjust="spacingAndGlyphs" textLength="194" x="15.5386" y="132.4499">moisture/MoistureDashboard</text><ellipse cx="287.4148" cy="128.283" fill="#F8F8F8" rx="54.4148" ry="13.283" style="stroke: #383838; stroke-width: 0.5;"/><text fill="#000000" font-family="Tahoma, sans-serif" font-size="12" lengthAdjust="spacingAndGlyphs" textLength="73" x="250.9148" y="132.0251">PercentChart</text><ellipse cx="814.2768" cy="53.2554" fill="#F8F8F8" rx="66.7768" ry="15.7554" style="stroke: #383838; stroke-width: 0.5;"/><text fill="#000000" font-family="Tahoma, sans-serif" font-size="12" font-weight="bold" lengthAdjust="spacingAndGlyphs" textLength="105" x="761.7768" y="56.9976">react-app-env.d</text><ellipse cx="927.4914" cy="53.742" fill="#F8F8F8" rx="31.9914" ry="13.242" style="stroke: #383838; stroke-width: 0.5;"/><text fill="#000000" font-family="Tahoma, sans-serif" font-size="12" font-weight="bold" lengthAdjust="spacingAndGlyphs" textLength="41" x="906.9914" y="57.4842">server</text><ellipse cx="623.3275" cy="53.3655" fill="#F8F8F8" rx="57.3275" ry="13.8655" style="stroke: #383838; stroke-width: 0.5;"/><text fill="#000000" font-family="Tahoma, sans-serif" font-size="12" lengthAdjust="spacingAndGlyphs" textLength="81" x="582.8275" y="57.1077">serviceWorker</text><ellipse cx="814.271" cy="128.3542" fill="#F8F8F8" rx="54.771" ry="13.3542" style="stroke: #383838; stroke-width: 0.5;"/><text fill="#000000" font-family="Tahoma, sans-serif" font-size="12" font-weight="bold" lengthAdjust="spacingAndGlyphs" textLength="74" x="777.271" y="132.0964">setupTests</text><ellipse cx="533.3492" cy="53.742" fill="#F8F8F8" rx="17.8492" ry="13.242" style="stroke: #383838; stroke-width: 0.5;"/><text fill="#000000" font-family="Tahoma, sans-serif" font-size="12" font-weight="bold" lengthAdjust="spacingAndGlyphs" textLength="21" x="522.8492" y="57.4842">src</text><ellipse cx="259.3492" cy="53.742" fill="#F8F8F8" rx="17.8492" ry="13.242" style="stroke: #383838; stroke-width: 0.5;"/><text fill="#000000" font-family="Tahoma, sans-serif" font-size="12" lengthAdjust="spacingAndGlyphs" textLength="21" x="248.8492" y="57.4842">Tab</text><!--link App to Header--><path d="M713.5,66.554 C713.5,78.424 713.5,96.676 713.5,110.1131 " fill="none" id="App-Header" style="stroke: #000000; stroke-width: 0.5;"/><polygon fill="#000000" points="713.5,115.1836,717.5,106.1836,713.5,110.1836,709.5,106.1836,713.5,115.1836" style="stroke: #000000; stroke-width: 0.5;"/><!--link components/MoistureDashboard to GraphIcon--><path d="M428.909,76.008 C447.098,88.079 469.277,102.797 485.257,113.4023 " fill="none" id="components/MoistureDashboard-GraphIcon" style="stroke: #000000; stroke-width: 0.5;"/><polygon fill="#000000" points="489.591,116.2787,484.3051,107.9685,485.4254,113.5133,479.8805,114.6335,489.591,116.2787" style="stroke: #000000; stroke-width: 0.5;"/><!--link components/MoistureDashboard to PercentChart--><path d="M364.386,76.008 C346.706,87.848 325.223,102.236 309.464,112.7899 " fill="none" id="components/MoistureDashboard-PercentChart" style="stroke: #000000; stroke-width: 0.5;"/><polygon fill="#000000" points="305.179,115.6597,314.8826,113.9742,309.3331,112.877,310.4303,107.3276,305.179,115.6597" style="stroke: #000000; stroke-width: 0.5;"/><!--link Header to Logo--><path d="M713.5,141.5506 C713.5,150.9752 713.5,164.2035 713.5,174.75 " fill="none" id="Header-Logo" style="stroke: #000000; stroke-width: 0.5;"/><polygon fill="#000000" points="713.5,179.9864,717.5,170.9864,713.5,174.9864,709.5,170.9864,713.5,179.9864" style="stroke: #000000; stroke-width: 0.5;"/><!--link <b>Home</b> to components/MoistureDashboard--><path d="M207.609,41.116 C215.711,32.236 227.938,20.995 241.5,16 C278.148,2.502 321.47,15.265 352.984,29.447 " fill="none" id="&lt;b&gt;Home&lt;/b&gt;-components/MoistureDashboard" style="stroke: #000000; stroke-width: 1.0;"/><polygon fill="#000000" points="357.546,31.547,351.0444,24.1491,353.0044,29.4555,347.698,31.4156,357.546,31.547" style="stroke: #000000; stroke-width: 1.0;"/><!--link <b>Home</b> to Tab--><path d="M227.531,53.5 C230.341,53.5 233.151,53.5 235.961,53.5 " fill="none" id="&lt;b&gt;Home&lt;/b&gt;-Tab" style="stroke: #000000; stroke-width: 1.0;"/><polygon fill="#000000" points="241.018,53.5,232.018,49.5,236.018,53.5,232.018,57.5,241.018,53.5" style="stroke: #000000; stroke-width: 1.0;"/><!--link <b>moisture/MoistureDashboard</b> to GraphIcon--><path d="M165.742,108.0607 C186.278,101.19 210.168,94.408 232.5,91 C279.511,83.826 400.787,77.89 446.5,91 C461.511,95.305 476.409,104.582 487.605,112.8308 " fill="none" id="&lt;b&gt;moisture/MoistureDashboard&lt;/b&gt;-GraphIcon" style="stroke: #000000; stroke-width: 1.0;"/><polygon fill="#000000" points="491.859,116.0475,487.0906,107.4299,487.8701,113.0328,482.2671,113.8122,491.859,116.0475" style="stroke: #000000; stroke-width: 1.0;"/><!--link <b>moisture/MoistureDashboard</b> to _HistoryChart--><path d="M162.826,107.7146 C209.727,91.276 281.282,73.73 341.5,91 C353.898,94.556 366.22,101.503 376.442,108.462 " fill="none" id="&lt;b&gt;moisture/MoistureDashboard&lt;/b&gt;-_HistoryChart" style="stroke: #000000; stroke-width: 1.0;"/><polygon fill="#000000" points="380.688,111.4351,375.6108,102.9958,376.5925,108.5668,371.0215,109.5485,380.688,111.4351" style="stroke: #000000; stroke-width: 1.0;"/><!--link <b>moisture/MoistureDashboard</b> to PercentChart--><path d="M219.141,128.5 C221.978,128.5 224.815,128.5 227.652,128.5 " fill="none" id="&lt;b&gt;moisture/MoistureDashboard&lt;/b&gt;-PercentChart" style="stroke: #000000; stroke-width: 1.0;"/><polygon fill="#000000" points="232.759,128.5,223.759,124.5,227.759,128.5,223.759,132.5,232.759,128.5" style="stroke: #000000; stroke-width: 1.0;"/><!--link <b>src</b> to App--><path d="M540.089,41.212 C545.583,32.382 554.309,21.162 565.5,16 C588.706,5.296 657.213,5.473 680.5,16 C690.101,20.34 698.022,29.008 703.695,36.917 " fill="none" id="&lt;b&gt;src&lt;/b&gt;-App" style="stroke: #000000; stroke-width: 1.0;"/><polygon fill="#000000" points="706.612,41.201,704.8526,31.5106,703.7978,37.0682,698.2401,36.0134,706.612,41.201" style="stroke: #000000; stroke-width: 1.0;"/><!--link <b>src</b> to serviceWorker--><path d="M551.781,53.5 C554.699,53.5 557.618,53.5 560.536,53.5 " fill="none" id="&lt;b&gt;src&lt;/b&gt;-serviceWorker" style="stroke: #000000; stroke-width: 1.0;"/><polygon fill="#000000" points="565.789,53.5,556.789,49.5,560.789,53.5,556.789,57.5,565.789,53.5" style="stroke: #000000; stroke-width: 1.0;"/><!--link <b>react-app-env.d</b> to <b>server</b>--><!--link <b>react-app-env.d</b> to <b>setupTests</b>--><script type="text/plantuml"><![CDATA[
@startuml

scale max 1920 width
top to bottom direction

skinparam nodesep 14
skinparam ranksep 28
skinparam monochrome true
skinparam shadowing false
skinparam defaultFontName Tahoma
skinparam defaultFontSize 12
skinparam roundCorner 6
skinparam dpi 150
skinparam arrowColor black
skinparam arrowThickness 0.5
skinparam packageTitleAlignment left

skinparam usecase {
  borderThickness 0.5
}

skinparam rectangle {
  borderThickness 0.5
}

skinparam component {
  borderThickness 1
}


(App)
(components/MoistureDashboard)
(GraphIcon)
(Header)
rectangle "HistoryChart" as _HistoryChart
(<b>Home</b>)
(Logo)
(<b>moisture/MoistureDashboard</b>)
(PercentChart)
(<b>react-app-env.d</b>)
(<b>server</b>)
(serviceWorker)
(<b>setupTests</b>)
(<b>src</b>)
(Tab)


(App) --> (Header)
(components/MoistureDashboard) --> (GraphIcon)
(components/MoistureDashboard) --> (PercentChart)
(Header) --> (Logo)
(<b>Home</b>) -[thickness=1]> (components/MoistureDashboard)
(<b>Home</b>) -[thickness=1]> (Tab)
(<b>moisture/MoistureDashboard</b>) -[thickness=1]> (GraphIcon)
(<b>moisture/MoistureDashboard</b>) -[thickness=1]> _HistoryChart
(<b>moisture/MoistureDashboard</b>) -[thickness=1]> (PercentChart)
(<b>src</b>) -[thickness=1]> (App)
(<b>src</b>) -[thickness=1]> (serviceWorker)

@enduml


' View and edit on https://arkit.pro
]]></script></g></svg>