<?xml version="1.0" encoding="UTF-8"?>
<svg width="100%" height="100%" viewBox="0 0 256 256" version="1.1" xmlns="http://www.w3.org/2000/svg" xmlns:xlink="http://www.w3.org/1999/xlink">
    <!-- Generator: Sketch 62 (91390) - https://sketch.com -->
    <title>cactus</title>
    <desc>Created with Sketch.</desc>
    <defs>
        <circle id="path-1" cx="128" cy="128" r="128"></circle>
        <path d="M0.512888989,3 L105.487111,3 C106.077283,11.2606181 106.637739,17.3658771 101.303111,21.5106949 C100.429579,36.6095987 98.4601172,49.9298216 94.02076,60.4856492 C80.5774887,63.0829655 66.3387544,64.4785803 51.5984081,64.4785803 C37.5718157,64.4785803 23.9994334,63.2148496 11.1361749,60.853039 C6.49556554,50.02956 4.5018939,36.2497786 3.6452991,20.5978013 C-0.557853501,16.4863824 -0.0353012887,10.6730037 0.512888989,3 Z" id="path-3"></path>
        <linearGradient x1="67.7705269%" y1="56.3909044%" x2="39.4119246%" y2="33.1620288%" id="linearGradient-5">
            <stop stop-color="#FF9479" offset="0%"></stop>
            <stop stop-color="#E42A62" offset="100%"></stop>
        </linearGradient>
    </defs>
    <g id="Cactus-Plants" stroke="none" stroke-width="1" fill="none" fill-rule="evenodd">
        <g id="cactus">
            <g>
                <mask id="mask-2" fill="white">
                    <use xlink:href="#path-1"></use>
                </mask>
                <use id="Oval-8" fill="#D8D8D8" xlink:href="#path-1"></use>
                <polygon id="Background2" fill="#FFDDDD" mask="url(#mask-2)" points="1 1.13686838e-13 257 1.13686838e-13 257 256 1 256"></polygon>
                <polygon id="Ground2" fill="#FFEFEF" mask="url(#mask-2)" points="0 171 256 171 256 256.333333 0 256.333333"></polygon>
                <g id="pot" mask="url(#mask-2)">
                    <g transform="translate(76.000000, 160.000000)">
                        <ellipse id="Shadow" stroke="none" fill="#D0DEE4" fill-rule="evenodd" style="mix-blend-mode: multiply;" cx="67.5" cy="61" rx="59.5" ry="7"></ellipse>
                        <mask id="mask-4" fill="white">
                            <use xlink:href="#path-3"></use>
                        </mask>
                        <use id="Combined-Shape2" stroke="none" fill="#FF9479" fill-rule="evenodd" xlink:href="#path-3"></use>
                        <path d="M77.3075844,83 C82.0120849,129.3047 115.53867,62.702826 125.57936,26.0631847 C135.62005,-10.5764566 101.168379,-8 81.2861285,-8 C61.4038775,-8 30.0549357,5.98969541 46.7078835,26.0631847 C63.3608313,46.136674 72.6030839,36.6952996 77.3075844,83 Z" id="Shadow" stroke="none" fill-opacity="0.33" fill="url(#linearGradient-5)" fill-rule="evenodd" mask="url(#mask-4)"></path>
                        <path d="M0.512888989,3 L105.487111,3 C106.26184,13.843857 106.985362,20.9735412 94.3895676,24.829978 C81.7066922,26.8771208 67.9165114,28 53.4962246,28 C38.2986455,28 23.8009319,26.7528058 10.5616652,24.49091 C-0.943918081,20.5625152 -0.239673477,13.5335953 0.512888989,3 L0.512888989,3 Z" id="Path" stroke="none" fill-opacity="0.5" fill="#FF9479" fill-rule="evenodd" style="mix-blend-mode: multiply;" mask="url(#mask-4)"></path>
                        <ellipse id="Oval2" stroke="none" fill="#13263C" fill-rule="evenodd" cx="53" cy="3" rx="52" ry="3"></ellipse>
                    </g>
                </g>
                <g id="plant2" mask="url(#mask-2)">
                    <g transform="translate(81.000000, 95.000000)">
                        <circle id="Oval-7-Copy-4" stroke="none" fill="#41CC99" fill-rule="evenodd" cx="17" cy="20" r="16"></circle>
                        <path d="M32.4960832,16.0005952 C32.8250423,17.2788957 33,18.6190161 33,20 C33,28.836556 25.836556,36 17,36 C8.163444,36 1,28.836556 1,20 C1,18.6190161 1.1749577,17.2788957 1.50391676,16.0005952 C3.27988091,22.9006156 9.54442794,28 17,28 C24.3637967,28 30.56571,23.0253861 32.4284645,16.2534338 Z" id="Combined-Shape" stroke="none" fill="#2DB799" fill-rule="evenodd"></path>
                        <circle id="Oval-7" stroke="none" fill="#38C290" fill-rule="evenodd" cx="43.5" cy="40.5" r="29.5"></circle>
                        <path d="M63.3123644,18.642892 C69.262933,24.0400456 73,31.8336034 73,40.5 C73,56.7924001 59.7924001,70 43.5,70 C30.6638359,70 19.7424896,61.8016909 15.6864854,50.3555973 C20.9222466,55.1056731 27.8731202,58 35.5,58 C51.7924001,58 65,44.7924001 65,28.5 C65,25.078596 64.4175448,21.7932316 63.3463818,18.7376542 Z" id="Combined-Shape" stroke="none" fill="#189E8D" fill-rule="evenodd"></path>
                        <circle id="Oval-7-Copy" stroke="none" fill="#41CC99" fill-rule="evenodd" cx="65" cy="49" r="21"></circle>
                        <path d="M78.7616105,33.1370985 C83.1959895,36.9873927 86,42.6662405 86,49 C86,60.5979797 76.5979797,70 65,70 C59.9615564,70 55.3375441,68.2256092 51.7187623,65.2676269 C53.6978015,65.8204965 55.7851917,66.1165447 57.9417276,66.1165447 C70.6764598,66.1165447 81,55.7930045 81,43.0582724 C81,39.6198947 80.2474139,36.3572929 78.8979805,33.4262057 Z" id="Combined-Shape" stroke="none" fill="#1FA99C" fill-rule="evenodd"></path>
                        <circle id="Oval-7-Copy-3" stroke="none" fill="#5FCF9F" fill-rule="evenodd" cx="57.5" cy="11.5" r="8.5"></circle>
                        <path d="M65.334773,8.19791411 C65.7631631,9.21310418 66,10.328894 66,11.5 C66,16.1944204 62.1944204,20 57.5,20 C54.5423858,20 51.9375834,18.4894333 50.4150102,16.1977175 C51.8401575,16.9549598 53.4659768,17.3840148 55.1920074,17.3840148 C60.4456383,17.3840148 64.7708624,13.4090328 65.3242095,8.3025389 Z" id="Combined-Shape" stroke="none" fill="#35B49C" fill-rule="evenodd"></path>
                        <line x1="59.5" y1="3.5" x2="60" y2="0" id="Line" stroke="#223851" stroke-width="2" fill="none" stroke-linecap="round"></line>
                        <line x1="51.5" y1="7.5" x2="50" y2="5" id="Line" stroke="#223851" stroke-width="2" fill="none" stroke-linecap="round"></line>
                        <line x1="5.5" y1="10.5" x2="4" y2="9" id="Line" stroke="#223851" stroke-width="2" fill="none" stroke-linecap="round"></line>
                        <line x1="13" y1="10" x2="12" y2="9" id="Line" stroke="#223851" stroke-width="2" fill="none" stroke-linecap="round"></line>
                        <line x1="23" y1="20" x2="21" y2="18" id="Line" stroke="#223851" stroke-width="2" fill="none" stroke-linecap="round"></line>
                        <line x1="31" y1="15" x2="30" y2="13" id="Line" stroke="#223851" stroke-width="2" fill="none" stroke-linecap="round"></line>
                        <line x1="17" y1="51.25" x2="15" y2="52" id="Line" stroke="#223851" stroke-width="2" fill="none" stroke-linecap="round"></line>
                        <line x1="15" y1="39.25" x2="13" y2="39.25" id="Line" stroke="#223851" stroke-width="2" fill="none" stroke-linecap="round"></line>
                        <line x1="2" y1="19.25" x2="0" y2="19.25" id="Line" stroke="#223851" stroke-width="2" fill="none" stroke-linecap="round"></line>
                        <line x1="64.5" y1="8.5" x2="66" y2="7" id="Line" stroke="#223851" stroke-width="2" fill="none" stroke-linecap="round"></line>
                        <line x1="21.5" y1="4.5" x2="21.5" y2="3" id="Line" stroke="#223851" stroke-width="2" fill="none" stroke-linecap="round"></line>
                        <line x1="72.5" y1="30.5" x2="73" y2="27" id="Line" stroke="#223851" stroke-width="2" fill="none" stroke-linecap="round"></line>
                        <line x1="53.5" y1="32.5" x2="53" y2="31" id="Line" stroke="#223851" stroke-width="2" fill="none" stroke-linecap="round"></line>
                        <line x1="49.5" y1="35.5" x2="49" y2="35" id="Line" stroke="#223851" stroke-width="2" fill="none" stroke-linecap="round"></line>
                        <line x1="85" y1="50" x2="87" y2="50" id="Line" stroke="#223851" stroke-width="2" fill="none" stroke-linecap="round"></line>
                        <line x1="82" y1="59.25" x2="83" y2="60" id="Line" stroke="#223851" stroke-width="2" fill="none" stroke-linecap="round"></line>
                        <line x1="82.5" y1="38.5" x2="86" y2="37" id="Line" stroke="#223851" stroke-width="2" fill="none" stroke-linecap="round"></line>
                        <ellipse id="Oval" stroke="none" fill="#13263C" fill-rule="evenodd" cx="51" cy="69" rx="30" ry="2"></ellipse>
                    </g>
                </g>
            </g>
        </g>
    </g>
</svg>