<?xml version="1.0" encoding="UTF-8"?>
<svg width="334px" height="211px" viewBox="0 0 334 211" version="1.1" xmlns="http://www.w3.org/2000/svg" xmlns:xlink="http://www.w3.org/1999/xlink">
    <!-- Generator: Sketch 62 (91390) - https://sketch.com -->
    <title>Combined Shape</title>
    <desc>Created with Sketch.</desc>
    <g id="Logo" stroke="none" stroke-width="1" fill="none" fill-rule="evenodd">
        <g id="ThickOutline" transform="translate(-60.000000, -97.000000)" stroke="#45B649" stroke-width="10">
            <path d="M183.248175,102 C216.501352,102 243.925608,126.953853 247.812738,159.15528 C256.777656,150.834057 268.787398,145.747059 281.985401,145.747059 C309.740734,145.747059 332.240876,168.24475 332.240876,195.997059 C332.240876,196.233504 332.239243,196.469569 332.235987,196.705241 C333.409772,196.627548 334.594455,196.588235 335.788321,196.588235 C365.17632,196.588235 389,220.40932 389,249.794118 C389,278.885067 365.650411,302.523022 336.668274,302.992872 L335.788321,303 L335.788321,303 L124.124088,303 C91.4707557,303 65,276.532128 65,243.882353 C65,212.38546 89.634366,186.641604 120.689085,184.862816 C119.075215,179.197572 118.211679,173.214326 118.211679,167.029412 C118.211679,131.114659 147.32951,102 183.248175,102 Z M232.541169,224.02795 C222.605576,223.062811 212.28022,225.506222 203.451546,231.688127 C195.361374,237.352926 189.791261,245.272371 187.000285,253.996628 C184.208227,245.272977 178.637997,237.353143 170.547516,231.688127 C161.608801,225.429171 151.135864,223.002482 141.086567,224.065627 L141.086567,224.065627 L141.177148,224.428895 C143.668386,234.095396 149.495922,242.96236 158.324596,249.144265 C167.028778,255.238998 177.187728,257.699929 186.993783,256.842221 C196.803327,257.701867 206.966854,255.2414 215.674465,249.144265 C224.61318,242.885309 230.475477,233.873944 232.91351,224.067077 L232.91351,224.067077 Z M187.000416,183.000078 L186.754799,183.282639 C180.265381,190.86782 176.344526,200.727339 176.344526,211.50516 C176.344526,222.417525 180.363883,232.388518 187.000034,240.010682 C193.635179,232.388518 197.654536,222.417525 197.654536,211.50516 C197.654536,200.593005 193.635333,190.622185 187.000416,183.000078 L187.000416,183.000078 Z M186.5,256.589744 L186.5,301.410256" id="Combined-Shape"></path>
        </g>
    </g>
</svg>