<?xml version="1.0" encoding="UTF-8" standalone="no"?><svg xmlns="http://www.w3.org/2000/svg" xmlns:xlink="http://www.w3.org/1999/xlink" contentScriptType="application/ecmascript" contentStyleType="text/css" height="187px" preserveAspectRatio="none" style="width:889px;height:187px;" version="1.1" viewBox="0 0 889 187" width="889px" zoomAndPan="magnify"><defs/><g><ellipse cx="318.8492" cy="52.242" fill="#F8F8F8" rx="17.8492" ry="13.242" style="stroke: #383838; stroke-width: 0.5;"/><text fill="#000000" font-family="Tahoma, sans-serif" font-size="12" lengthAdjust="spacingAndGlyphs" textLength="21" x="308.3492" y="55.9842">App</text><ellipse cx="47.1838" cy="52.242" fill="#F8F8F8" rx="41.1838" ry="13.242" style="stroke: #383838; stroke-width: 0.5;"/><text fill="#000000" font-family="Tahoma, sans-serif" font-size="12" font-weight="bold" lengthAdjust="spacingAndGlyphs" textLength="54" x="20.1838" y="55.9842">App.test</text><ellipse cx="435.1335" cy="109.742" fill="#F8F8F8" rx="46.1335" ry="13.242" style="stroke: #383838; stroke-width: 0.5;"/><text fill="#000000" font-family="Tahoma, sans-serif" font-size="12" lengthAdjust="spacingAndGlyphs" textLength="61" x="404.6335" y="113.4842">GraphIcon</text><ellipse cx="318.7843" cy="109.742" fill="#F8F8F8" rx="31.2843" ry="13.242" style="stroke: #383838; stroke-width: 0.5;"/><text fill="#000000" font-family="Tahoma, sans-serif" font-size="12" lengthAdjust="spacingAndGlyphs" textLength="40" x="298.7843" y="113.4842">Header</text><!--entity _HistoryChart--><rect fill="#F8F8F8" height="34.4844" rx="3" ry="3" style="stroke: #000000; stroke-width: 0.5;" width="102" x="629" y="35"/><text fill="#000000" font-family="Tahoma, sans-serif" font-size="12" font-weight="bold" lengthAdjust="spacingAndGlyphs" textLength="82" x="639" y="57.0059">HistoryChart</text><ellipse cx="380.8701" cy="52.242" fill="#F8F8F8" rx="29.8701" ry="13.242" style="stroke: #383838; stroke-width: 0.5;"/><text fill="#000000" font-family="Tahoma, sans-serif" font-size="12" font-weight="bold" lengthAdjust="spacingAndGlyphs" textLength="38" x="361.8701" y="55.9842">Home</text><ellipse cx="130.2487" cy="52.242" fill="#F8F8F8" rx="27.7487" ry="13.242" style="stroke: #383838; stroke-width: 0.5;"/><text fill="#000000" font-family="Tahoma, sans-serif" font-size="12" font-weight="bold" lengthAdjust="spacingAndGlyphs" textLength="35" x="112.7487" y="55.9842">index</text><ellipse cx="319.0061" cy="163.242" fill="#F8F8F8" rx="23.5061" ry="13.242" style="stroke: #383838; stroke-width: 0.5;"/><text fill="#000000" font-family="Tahoma, sans-serif" font-size="12" lengthAdjust="spacingAndGlyphs" textLength="29" x="304.5061" y="166.9842">Logo</text><ellipse cx="545.1876" cy="51.8375" fill="#F8F8F8" rx="69.6876" ry="16.3375" style="stroke: #383838; stroke-width: 0.5;"/><text fill="#000000" font-family="Tahoma, sans-serif" font-size="12" lengthAdjust="spacingAndGlyphs" textLength="112" x="489.1876" y="55.5797">MoistureDashboard</text><ellipse cx="549.9148" cy="109.283" fill="#F8F8F8" rx="54.4148" ry="13.283" style="stroke: #383838; stroke-width: 0.5;"/><text fill="#000000" font-family="Tahoma, sans-serif" font-size="12" lengthAdjust="spacingAndGlyphs" textLength="73" x="513.4148" y="113.0251">PercentChart</text><ellipse cx="811.7768" cy="51.7554" fill="#F8F8F8" rx="66.7768" ry="15.7554" style="stroke: #383838; stroke-width: 0.5;"/><text fill="#000000" font-family="Tahoma, sans-serif" font-size="12" font-weight="bold" lengthAdjust="spacingAndGlyphs" textLength="105" x="759.2768" y="55.4976">react-app-env.d</text><ellipse cx="228.8275" cy="51.8655" fill="#F8F8F8" rx="57.3275" ry="13.8655" style="stroke: #383838; stroke-width: 0.5;"/><text fill="#000000" font-family="Tahoma, sans-serif" font-size="12" lengthAdjust="spacingAndGlyphs" textLength="81" x="188.3275" y="55.6077">serviceWorker</text><ellipse cx="679.771" cy="109.3542" fill="#F8F8F8" rx="54.771" ry="13.3542" style="stroke: #383838; stroke-width: 0.5;"/><text fill="#000000" font-family="Tahoma, sans-serif" font-size="12" font-weight="bold" lengthAdjust="spacingAndGlyphs" textLength="74" x="642.771" y="113.0964">setupTests</text><ellipse cx="442.8492" cy="52.242" fill="#F8F8F8" rx="17.8492" ry="13.242" style="stroke: #383838; stroke-width: 0.5;"/><text fill="#000000" font-family="Tahoma, sans-serif" font-size="12" lengthAdjust="spacingAndGlyphs" textLength="21" x="432.3492" y="55.9842">Tab</text><!--link App to Header--><path d="M319,65.043 C319,72.752 319,82.8726 319,91.4074 " fill="none" id="App-Header" style="stroke: #000000; stroke-width: 0.5;"/><polygon fill="#000000" points="319,96.4808,323,87.4808,319,91.4808,315,87.4808,319,96.4808" style="stroke: #000000; stroke-width: 0.5;"/><!--link <b>App.test</b> to App--><path d="M63.7204,40.003 C74.3925,33.103 88.8387,25.106 103,21.5 C142.624,11.409 249.039,6.307 287,21.5 C294.758,24.605 301.705,30.585 307.128,36.434 " fill="none" id="&lt;b&gt;App.test&lt;/b&gt;-App" style="stroke: #000000; stroke-width: 1.0;"/><polygon fill="#000000" points="310.63,40.425,307.7019,31.0215,307.3327,36.6663,301.6879,36.2971,310.63,40.425" style="stroke: #000000; stroke-width: 1.0;"/><!--link Header to Logo--><path d="M319,122.7048 C319,129.2467 319,137.4193 319,144.6144 " fill="none" id="Header-Logo" style="stroke: #000000; stroke-width: 0.5;"/><polygon fill="#000000" points="319,149.8828,323,140.8828,319,144.8828,315,140.8828,319,149.8828" style="stroke: #000000; stroke-width: 0.5;"/><!--link <b>Home</b> to MoistureDashboard--><path d="M393.727,40.042 C401.958,33.156 413.29,25.162 425,21.5 C454.62,12.238 488.998,23.123 513.346,34.377 " fill="none" id="&lt;b&gt;Home&lt;/b&gt;-MoistureDashboard" style="stroke: #000000; stroke-width: 1.0;"/><polygon fill="#000000" points="518.077,36.627,511.6667,29.1499,513.5615,34.4799,508.2314,36.3747,518.077,36.627" style="stroke: #000000; stroke-width: 1.0;"/><!--link <b>Home</b> to Tab--><path d="M411.031,52 C413.841,52 416.651,52 419.461,52 " fill="none" id="&lt;b&gt;Home&lt;/b&gt;-Tab" style="stroke: #000000; stroke-width: 1.0;"/><polygon fill="#000000" points="424.518,52,415.518,48,419.518,52,415.518,56,424.518,52" style="stroke: #000000; stroke-width: 1.0;"/><!--link <b>index</b> to App--><path d="M142.053,40.051 C149.874,33.169 160.687,25.175 172,21.5 C220.611,5.711 239.548,2.509 287,21.5 C294.758,24.605 301.705,30.585 307.128,36.434 " fill="none" id="&lt;b&gt;index&lt;/b&gt;-App" style="stroke: #000000; stroke-width: 1.0;"/><polygon fill="#000000" points="310.63,40.425,307.7019,31.0215,307.3327,36.6663,301.6879,36.2971,310.63,40.425" style="stroke: #000000; stroke-width: 1.0;"/><!--link <b>index</b> to serviceWorker--><path d="M157.844,52 C160.681,52 163.519,52 166.356,52 " fill="none" id="&lt;b&gt;index&lt;/b&gt;-serviceWorker" style="stroke: #000000; stroke-width: 1.0;"/><polygon fill="#000000" points="171.464,52,162.464,48,166.464,52,162.464,56,171.464,52" style="stroke: #000000; stroke-width: 1.0;"/><!--link MoistureDashboard to GraphIcon--><path d="M516.958,67.149 C499.619,75.897 477.532,87.0405 460.657,95.555 " fill="none" id="MoistureDashboard-GraphIcon" style="stroke: #000000; stroke-width: 0.5;"/><polygon fill="#000000" points="456.043,97.8826,465.88,97.3987,460.5068,95.6299,462.2756,90.2567,456.043,97.8826" style="stroke: #000000; stroke-width: 0.5;"/><!--link MoistureDashboard to PercentChart--><path d="M546.419,68.756 C547.036,75.6 547.761,83.6492 548.397,90.7077 " fill="none" id="MoistureDashboard-PercentChart" style="stroke: #000000; stroke-width: 0.5;"/><polygon fill="#000000" points="548.863,95.8758,552.0392,86.5532,548.4143,90.896,544.0715,87.2711,548.863,95.8758" style="stroke: #000000; stroke-width: 0.5;"/><!--link _HistoryChart to <b>react-app-env.d</b>--><!--link _HistoryChart to <b>setupTests</b>--><script type="text/plantuml"><![CDATA[
@startuml

scale max 1920 width
top to bottom direction

skinparam nodesep 14
skinparam ranksep 27
skinparam monochrome true
skinparam shadowing false
skinparam defaultFontName Tahoma
skinparam defaultFontSize 12
skinparam roundCorner 6
skinparam dpi 150
skinparam arrowColor black
skinparam arrowThickness 0.5
skinparam packageTitleAlignment left

skinparam usecase {
  borderThickness 0.5
}

skinparam rectangle {
  borderThickness 0.5
}

skinparam component {
  borderThickness 1
}


(App)
(<b>App.test</b>)
(GraphIcon)
(Header)
rectangle "<b>HistoryChart</b>" as _HistoryChart
(<b>Home</b>)
(<b>index</b>)
(Logo)
(MoistureDashboard)
(PercentChart)
(<b>react-app-env.d</b>)
(serviceWorker)
(<b>setupTests</b>)
(Tab)


(App) --> (Header)
(<b>App.test</b>) -[thickness=1]> (App)
(Header) --> (Logo)
(<b>Home</b>) -[thickness=1]> (MoistureDashboard)
(<b>Home</b>) -[thickness=1]> (Tab)
(<b>index</b>) -[thickness=1]> (App)
(<b>index</b>) -[thickness=1]> (serviceWorker)
(MoistureDashboard) --> (GraphIcon)
(MoistureDashboard) --> (PercentChart)

@enduml


' View and edit on https://arkit.pro
]]></script></g></svg>