<?xml version="1.0" encoding="UTF-8"?>
<svg width="100%" height="100%" viewBox="0 0 256 256" version="1.1" xmlns="http://www.w3.org/2000/svg" xmlns:xlink="http://www.w3.org/1999/xlink">
    <!-- Generator: Sketch 62 (91390) - https://sketch.com -->
    <title>aloe vera</title>
    <desc>Created with Sketch.</desc>
    <defs>
        <circle id="path-11" cx="128" cy="128" r="128"></circle>
        <path d="M98.9722352,3.00037495 C98.9906964,4.16216947 99,5.32881298 99,6.5 C99,36.5288264 92.8838658,63.5707899 83.1141682,82.476879 C72.6755884,86.0626861 61.5368223,88 49.9714286,88 C37.9806053,88 26.4483737,85.9175377 15.6787068,82.0750087 C6.02998418,63.1883851 0,36.316588 0,6.5 C0,5.32881298 0.00930363756,4.16216947 0.027764812,3.00037495 Z" id="path-31"></path>
        <linearGradient x1="60.3605596%" y1="38.4513442%" x2="13.0125956%" y2="11.0955099%" id="LinearGradient-51">
            <stop stop-color="#FFFFFF" offset="0%"></stop>
            <stop stop-color="#BFCDDA" offset="100%"></stop>
        </linearGradient>
    </defs>
    <g id="Aloe-Plants" stroke="none" stroke-width="1" fill="none" fill-rule="evenodd">
        <g id="aloe-vera">
            <g>
                <mask id="mask-21" fill="white">
                    <use xlink:href="#path-11"></use>
                </mask>
                <use id="Oval-8" fill="#D8D8D8" xlink:href="#path-11"></use>
                <polygon id="Background1" fill="#AFDEEB" mask="url(#mask-21)" points="-5.68434189e-14 1.13686838e-13 256 1.13686838e-13 256 256 -5.68434189e-14 256"></polygon>
                <polygon id="Ground1" fill="#C7EDF7" mask="url(#mask-21)" points="0 171 256 171 256 256.333333 0 256.333333"></polygon>
                <g id="pot1" mask="url(#mask-21)">
                    <g transform="translate(79.000000, 140.000000)">
                        <ellipse id="Shadow1" stroke="none" fill="#D0DEE4" fill-rule="evenodd" style="mix-blend-mode: multiply;" cx="77" cy="83" rx="62" ry="7"></ellipse>
                        <mask id="mask-41" fill="white">
                            <use xlink:href="#path-31"></use>
                        </mask>
                        <use id="Combined-Shape1" stroke="none" fill="#FFFFFF" fill-rule="evenodd" xlink:href="#path-31"></use>
                        <path d="M74.3075844,107 C79.0120849,153.3047 112.53867,73.702826 122.57936,37.0631847 C132.62005,0.4235434 98.1683795,3 78.2861285,3 C58.4038775,3 27.0549357,16.9896954 43.7078835,37.0631847 C60.3608313,57.136674 69.6030839,60.6952996 74.3075844,107 Z" id="Shadow1" stroke="none" fill="url(#LinearGradient-51)" fill-rule="evenodd" mask="url(#mask-41)"></path>
                        <ellipse id="Oval1" stroke="none" fill="#223851" fill-rule="evenodd" cx="49.5" cy="3" rx="49.5" ry="3"></ellipse>
                    </g>
                </g>
                <g id="plant1" mask="url(#mask-21)">
                    <g transform="translate(80.000000, 87.000000)">
                        <path d="M79.5,65 C81.9852814,65 84,65.0887407 84,57.9090533 C84,53.122595 82.5,46.8195772 79.5,39 C76.5,46.8195772 75,53.122595 75,57.9090533 C75,65.0887407 77.0147186,65 79.5,65 Z" id="Oval-6" fill="#43C59E" transform="translate(79.500000, 52.000000) rotate(-286.000000) translate(-79.500000, -52.000000) "></path>
                        <path d="M78.5055699,65.9830143 C80.9877751,65.9830143 83,66.0717489 83,58.8967376 C83,54.1133968 81.5018566,47.8144843 78.5055699,40 C77.7409902,48.2059087 77.3587004,54.7005334 77.3587004,59.4838742 C77.3587004,66.6588855 76.0233647,65.9830143 78.5055699,65.9830143 Z" id="Oval-6" fill="#19A184" transform="translate(80.000000, 53.000000) rotate(-286.000000) translate(-80.000000, -53.000000) "></path>
                        <path d="M76,62 C80.9705627,62 85,62.1399373 85,50.8181225 C85,43.2702459 82,33.3308718 76,21 C70,33.3308718 67,43.2702459 67,50.8181225 C67,62.1399373 71.0294373,62 76,62 Z" id="Oval-6" fill="#43C59E" transform="translate(76.000000, 41.500000) rotate(-301.000000) translate(-76.000000, -41.500000) "></path>
                        <path d="M74.5432875,65.9922974 C79.4690492,65.9922974 83.205194,66.6567084 84.8090752,55.6440814 C85.8783293,48.3023301 82.4564001,38.0876363 74.5432875,25 C76.8865135,36.0836902 78.0581265,45.3987721 78.0581265,52.9452457 C78.0581265,64.264956 69.6175257,65.9922974 74.5432875,65.9922974 Z" id="Oval-6" fill="#19A184" transform="translate(79.000000, 45.500000) rotate(-301.000000) translate(-79.000000, -45.500000) "></path>
                        <path d="M67.4481683,40.4867364 C69.8641408,41.2784342 71.7866379,41.8571845 74.7004457,36.6149417 C76.6429843,33.5971706 77.7428357,29.4611396 78,24 C73.7325229,25.6570232 70.6275151,28.3020533 68.6849765,31.5958201 C65.7711686,37.2520564 65.0321958,39.5136502 67.4481683,40.4867364 Z" id="Oval-6-Copy" fill="#19A184" transform="translate(72.000000, 32.500000) rotate(12.000000) translate(-72.000000, -32.500000) "></path>
                        <path d="M36.4481683,34.4867364 C38.8641408,35.2784342 40.7866379,35.8571845 43.7004457,30.6149417 C45.6429843,27.5971706 46.7428357,23.4611396 47,18 C42.7325229,19.6570232 39.6275151,22.3020533 37.6849765,25.5958201 C34.7711686,31.2520564 34.0321958,33.5136502 36.4481683,34.4867364 Z" id="Oval-6-Copy" fill="#19A184" transform="translate(41.000000, 26.500000) scale(-1, 1) rotate(-15.000000) translate(-41.000000, -26.500000) "></path>
                        <path d="M65,59 C69.9705627,59 74,59.1740684 74,45.0908353 C74,35.7020132 71,23.3384015 65,8 C59,23.3384015 56,35.7020132 56,45.0908353 C56,59.1740684 60.0294373,59 65,59 Z" id="Oval-6" fill="#43C59E" transform="translate(65.000000, 33.500000) rotate(29.000000) translate(-65.000000, -33.500000) "></path>
                        <path d="M65.0508573,61 C69.9933323,61 74,61.1740684 74,47.0908353 C74,37.7020132 71.0169524,25.3384015 65.0508573,10 C68.2532396,25.189715 69.106462,37.3307073 67.6105245,46.422977 C65.3666183,60.0613815 60.1083823,61 65.0508573,61 Z" id="Oval-6" fill="#19A184" transform="translate(68.500000, 35.500000) rotate(29.000000) translate(-68.500000, -35.500000) "></path>
                        <path d="M14.1748738,57.9865877 C17.9384075,57.9865877 19,57.5444174 19,51.6177723 C19,47.6666756 17.2714935,42.7940848 13.8144806,37 C9.27149354,43.4548574 7,48.6578345 7,52.6089312 C7,58.5355763 10.41134,57.9865877 14.1748738,57.9865877 Z" id="Oval-6" fill="#43C59E" transform="translate(13.000000, 47.500000) scale(-1, 1) rotate(53.000000) translate(-13.000000, -47.500000) "></path>
                        <path d="M9.30445998,63 C13.0265081,63 17,60.5466537 17,54.4553981 C17,50.394561 14.8709595,45.2427617 10.6128786,39 C10.876615,43.871405 11.0084831,48.337526 11.0084831,52.3983631 C11.0084831,58.4896187 5.58241184,63 9.30445998,63 Z" id="Oval-6" fill="#19A184" transform="translate(12.500000, 51.000000) scale(-1, 1) rotate(53.000000) translate(-12.500000, -51.000000) "></path>
                        <path d="M23,58 C28.5228475,58 33,58.1058063 33,49.5454097 C33,43.8384786 29.6666667,36.3233421 23,27 C16.3333333,36.3233421 13,43.8384786 13,49.5454097 C13,58.1058063 17.4771525,58 23,58 Z" id="Oval-6" fill="#43C59E" transform="translate(23.000000, 42.500000) scale(-1, 1) rotate(53.000000) translate(-23.000000, -42.500000) "></path>
                        <path d="M17.0647719,62.9641964 C22.5175227,62.9641964 27,61.7901923 27,53.0987279 C27,47.3044183 23.5662322,39.6048423 16.6986965,30 C21.4304173,41.1815995 22.8934582,49.6380243 21.0878193,55.3692744 C18.379361,63.9661496 11.6120211,62.9641964 17.0647719,62.9641964 Z" id="Oval-6" fill="#19A184" transform="translate(21.000000, 46.500000) scale(-1, 1) rotate(53.000000) translate(-21.000000, -46.500000) "></path>
                        <path d="M34,58 C39.5228475,58 44,58.1501767 44,45.9999363 C44,37.8997761 40.6666667,27.2331307 34,14 C27.3333333,27.2331307 24,37.8997761 24,45.9999363 C24,58.1501767 28.4771525,58 34,58 Z" id="Oval-6" fill="#43C59E" transform="translate(34.000000, 36.000000) scale(-1, 1) rotate(27.000000) translate(-34.000000, -36.000000) "></path>
                        <path d="M26.7680324,59.968728 C32.358732,59.968728 37,60.7572706 37,48.5663513 C37,40.4390718 33.7589822,29.5836213 27.2769465,16 C32.2747498,29.7848505 34.0512074,40.7568836 32.6063192,48.9160995 C30.4389869,61.1549233 21.1773328,59.968728 26.7680324,59.968728 Z" id="Oval-6" fill="#19A184" transform="translate(31.000000, 38.000000) scale(-1, 1) rotate(27.000000) translate(-31.000000, -38.000000) "></path>
                        <path d="M50.9768884,58 C58.1693543,58 64,58.1911339 64,42.7271917 C64,32.4178969 59.6589628,18.8421663 50.9768884,2 C45.6589628,15.1678724 43,26.906456 43,37.2157508 C43,52.6796931 43.7844225,58 50.9768884,58 Z" id="Oval-6" fill="#56CFAA" transform="translate(53.500000, 30.000000) rotate(14.000000) translate(-53.500000, -30.000000) "></path>
                        <path d="M48.9295464,58.9476664 C53.1404542,59.2890014 62.9249153,58.3910276 61.92934,42.8897461 C61.2656231,32.5555585 58.8501638,23.5923098 54.6829622,16 C60.1809657,38.1152082 59.3102167,51.2166089 52.0707153,55.3042022 C39.2174075,62.561483 41.0961326,39.114125 41.0961326,44.0351381 C41.0961326,59.5121417 44.7186385,58.6063315 48.9295464,58.9476664 Z" id="Oval-6" fill="#19A184" transform="translate(51.500000, 37.500000) rotate(14.000000) translate(-51.500000, -37.500000) "></path>
                        <path d="M46.4481683,54.4867364 C48.8641408,55.2784342 50.7866379,55.8571845 53.7004457,50.6149417 C55.6429843,47.5971706 56.7428357,43.4611396 57,38 C52.7325229,39.6570232 49.6275151,42.3020533 47.6849765,45.5958201 C44.7711686,51.2520564 44.0321958,53.5136502 46.4481683,54.4867364 Z" id="Oval-6" fill="#19A184" transform="translate(51.000000, 46.500000) rotate(-15.000000) translate(-51.000000, -46.500000) "></path>
                        <path d="M37.558222,57 C41.6682025,57 45,57.095567 45,49.3635958 C45,44.2089484 42.5194073,37.4210832 37.558222,29 C34.5194073,35.5839362 33,41.453228 33,46.6078754 C33,54.3398465 33.4482414,57 37.558222,57 Z" id="Oval-6" fill="#64D9B5" transform="translate(39.000000, 43.000000) scale(-1, 1) rotate(37.000000) translate(-39.000000, -43.000000) "></path>
                        <path d="M34.4936156,58 C38.6392772,58 42,58.095567 42,50.3635958 C42,45.2089484 39.4978719,38.4210832 34.4936156,30 C35.5963322,37.2866459 36.1476904,43.5072926 36.1476904,48.66194 C36.1476904,56.3939111 30.347954,58 34.4936156,58 Z" id="Oval-6" fill="#19A184" transform="translate(37.500000, 44.000000) scale(-1, 1) rotate(37.000000) translate(-37.500000, -44.000000) "></path>
                        <path d="M48.193975,59 C67.4168118,59 83,57.5269351 83,56.9344098 C83,56.3418844 60.3979285,56 41.1750917,56 C21.952255,56 13,56.8382485 13,57.4307739 C13,58.0232992 28.9711382,59 48.193975,59 Z" id="Oval" fill="#223851"></path>
                    </g>
                </g>
            </g>
        </g>
    </g>
</svg>